<svg width="212" height="76" viewBox="0 0 212 76" fill="none" xmlns="http://www.w3.org/2000/svg">
<path d="M89.1426 59.3846V40.8886L80.9186 55.2566H79.5106L71.2546 40.8886V59.3846H69.0146V36.6646H71.3186L80.1826 52.2166L89.1106 36.6646H91.3826V59.3846H89.1426ZM103.098 59.6086C101.968 59.6086 100.922 59.3739 99.9624 58.9046C99.0024 58.4353 98.1704 57.8059 97.4664 57.0166C96.7837 56.2059 96.2504 55.2886 95.8664 54.2646C95.4824 53.2406 95.2904 52.1846 95.2904 51.0966C95.2904 49.9233 95.4717 48.8246 95.8344 47.8006C96.2184 46.7553 96.7517 45.8273 97.4344 45.0166C98.1384 44.2059 98.9597 43.5766 99.8984 43.1286C100.837 42.6593 101.882 42.4246 103.034 42.4246C104.464 42.4246 105.701 42.7873 106.746 43.5126C107.813 44.2379 108.709 45.1339 109.434 46.2006V42.7126H111.386V59.4486C111.386 60.9846 111.013 62.2753 110.266 63.3206C109.541 64.3873 108.549 65.1873 107.29 65.7206C106.053 66.2539 104.698 66.5206 103.226 66.5206C101.328 66.5206 99.7917 66.1793 98.6184 65.4966C97.445 64.8139 96.485 63.8966 95.7384 62.7446L97.0824 61.6886C97.7437 62.7339 98.6184 63.5126 99.7064 64.0246C100.816 64.5366 101.989 64.7926 103.226 64.7926C104.314 64.7926 105.306 64.5899 106.202 64.1846C107.12 63.8006 107.845 63.2139 108.378 62.4246C108.933 61.6353 109.21 60.6433 109.21 59.4486V56.1526C108.57 57.1979 107.696 58.0406 106.586 58.6806C105.477 59.2993 104.314 59.6086 103.098 59.6086ZM103.706 57.7846C104.368 57.7846 104.997 57.6673 105.594 57.4326C106.213 57.1979 106.778 56.8886 107.29 56.5046C107.802 56.0993 108.229 55.6513 108.57 55.1606C108.912 54.6699 109.125 54.1686 109.21 53.6566V48.5046C108.89 47.6939 108.432 46.9793 107.834 46.3606C107.237 45.7206 106.554 45.2299 105.786 44.8886C105.04 44.5259 104.261 44.3446 103.45 44.3446C102.512 44.3446 101.669 44.5473 100.922 44.9526C100.197 45.3366 99.5784 45.8593 99.0664 46.5206C98.5757 47.1606 98.1917 47.8859 97.9144 48.6966C97.637 49.5073 97.4984 50.3179 97.4984 51.1286C97.4984 52.0246 97.6584 52.8779 97.9784 53.6886C98.2984 54.4779 98.7357 55.1926 99.2904 55.8326C99.8664 56.4513 100.528 56.9313 101.274 57.2726C102.042 57.6139 102.853 57.7846 103.706 57.7846ZM123.424 59.7046C122.208 59.7046 121.088 59.4806 120.064 59.0326C119.061 58.5633 118.176 57.9233 117.408 57.1126C116.661 56.3019 116.074 55.3739 115.648 54.3286C115.242 53.2833 115.04 52.1739 115.04 51.0006C115.04 49.4219 115.392 47.9819 116.096 46.6806C116.8 45.3793 117.781 44.3446 119.04 43.5766C120.298 42.8086 121.749 42.4246 123.392 42.4246C124.949 42.4246 126.325 42.7873 127.52 43.5126C128.714 44.2166 129.6 45.1766 130.176 46.3926L128.064 47.0646C127.594 46.2113 126.933 45.5499 126.08 45.0806C125.248 44.5899 124.32 44.3446 123.296 44.3446C122.186 44.3446 121.173 44.6326 120.256 45.2086C119.338 45.7846 118.602 46.5739 118.048 47.5766C117.514 48.5793 117.248 49.7206 117.248 51.0006C117.248 52.2593 117.525 53.4006 118.08 54.4246C118.634 55.4486 119.37 56.2699 120.288 56.8886C121.205 57.4859 122.218 57.7846 123.328 57.7846C124.053 57.7846 124.746 57.6566 125.408 57.4006C126.09 57.1446 126.677 56.8033 127.168 56.3766C127.68 55.9286 128.021 55.4486 128.192 54.9366L130.336 55.5766C130.037 56.3659 129.536 57.0806 128.832 57.7206C128.149 58.3393 127.338 58.8299 126.4 59.1926C125.482 59.5339 124.49 59.7046 123.424 59.7046ZM133.85 36.0246H136.026V55.6086C136.026 56.4406 136.175 56.9846 136.474 57.2406C136.773 57.4966 137.135 57.6246 137.562 57.6246C137.946 57.6246 138.33 57.5819 138.714 57.4966C139.098 57.4113 139.429 57.3259 139.706 57.2406L140.09 59.0006C139.685 59.1713 139.183 59.3099 138.586 59.4166C138.01 59.5233 137.509 59.5766 137.082 59.5766C136.101 59.5766 135.311 59.2886 134.714 58.7126C134.138 58.1366 133.85 57.3473 133.85 56.3446V36.0246ZM149.577 59.7046C148.382 59.7046 147.273 59.4806 146.249 59.0326C145.246 58.5633 144.372 57.9339 143.625 57.1446C142.9 56.3339 142.334 55.4166 141.929 54.3926C141.524 53.3473 141.321 52.2486 141.321 51.0966C141.321 49.9019 141.524 48.7926 141.929 47.7686C142.334 46.7233 142.91 45.8059 143.657 45.0166C144.404 44.2059 145.278 43.5766 146.281 43.1286C147.305 42.6593 148.414 42.4246 149.609 42.4246C150.804 42.4246 151.902 42.6593 152.905 43.1286C153.908 43.5766 154.782 44.2059 155.529 45.0166C156.276 45.8059 156.852 46.7233 157.257 47.7686C157.662 48.7926 157.865 49.9019 157.865 51.0966C157.865 52.2486 157.662 53.3473 157.257 54.3926C156.852 55.4166 156.276 56.3339 155.529 57.1446C154.804 57.9339 153.929 58.5633 152.905 59.0326C151.902 59.4806 150.793 59.7046 149.577 59.7046ZM143.529 51.1286C143.529 52.3659 143.796 53.4966 144.329 54.5206C144.884 55.5233 145.62 56.3233 146.537 56.9206C147.454 57.4966 148.468 57.7846 149.577 57.7846C150.686 57.7846 151.7 57.4859 152.617 56.8886C153.534 56.2913 154.27 55.4806 154.825 54.4566C155.38 53.4113 155.657 52.2806 155.657 51.0646C155.657 49.8273 155.38 48.6966 154.825 47.6726C154.27 46.6486 153.534 45.8379 152.617 45.2406C151.7 44.6433 150.686 44.3446 149.577 44.3446C148.468 44.3446 147.454 44.6539 146.537 45.2726C145.641 45.8913 144.916 46.7126 144.361 47.7366C143.806 48.7393 143.529 49.8699 143.529 51.1286ZM161.344 52.5046V42.7126H163.52V52.1206C163.52 54.0193 163.84 55.4379 164.48 56.3766C165.141 57.3153 166.112 57.7846 167.392 57.7846C168.245 57.7846 169.067 57.6033 169.856 57.2406C170.667 56.8566 171.381 56.3233 172 55.6406C172.619 54.9366 173.088 54.1259 173.408 53.2086V42.7126H175.584V56.7606C175.584 57.0593 175.648 57.2833 175.776 57.4326C175.904 57.5606 176.096 57.6353 176.352 57.6566V59.3846C176.096 59.4059 175.893 59.4166 175.744 59.4166C175.595 59.4379 175.456 59.4486 175.328 59.4486C174.901 59.4059 174.528 59.2353 174.208 58.9366C173.909 58.6379 173.749 58.2753 173.728 57.8486L173.664 55.6086C172.939 56.8886 171.947 57.8913 170.688 58.6166C169.451 59.3419 168.107 59.7046 166.656 59.7046C164.907 59.7046 163.584 59.0966 162.688 57.8806C161.792 56.6646 161.344 54.8726 161.344 52.5046ZM179.384 51.0966C179.384 49.5179 179.704 48.0779 180.344 46.7766C181.005 45.4539 181.912 44.3979 183.064 43.6086C184.216 42.8193 185.528 42.4246 187 42.4246C188.387 42.4246 189.624 42.7979 190.712 43.5446C191.821 44.2699 192.685 45.1553 193.304 46.2006V36.0246H195.48V56.7606C195.48 57.0593 195.544 57.2833 195.672 57.4326C195.8 57.5606 195.992 57.6353 196.248 57.6566V59.3846C195.821 59.4486 195.491 59.4699 195.256 59.4486C194.808 59.4273 194.413 59.2459 194.072 58.9046C193.731 58.5633 193.56 58.1899 193.56 57.7846V56.1526C192.899 57.2406 192.003 58.1046 190.872 58.7446C189.741 59.3846 188.568 59.7046 187.352 59.7046C186.2 59.7046 185.133 59.4699 184.152 59.0006C183.192 58.5313 182.349 57.8913 181.624 57.0806C180.92 56.2699 180.365 55.3526 179.96 54.3286C179.576 53.2833 179.384 52.2059 179.384 51.0966ZM193.304 53.6566V48.5046C193.027 47.7366 192.579 47.0433 191.96 46.4246C191.341 45.7846 190.637 45.2833 189.848 44.9206C189.08 44.5366 188.312 44.3446 187.544 44.3446C186.648 44.3446 185.837 44.5366 185.112 44.9206C184.387 45.2833 183.757 45.7846 183.224 46.4246C182.712 47.0646 182.317 47.7899 182.04 48.6006C181.763 49.4113 181.624 50.2433 181.624 51.0966C181.624 51.9926 181.773 52.8459 182.072 53.6566C182.392 54.4673 182.84 55.1926 183.416 55.8326C183.992 56.4513 184.653 56.9313 185.4 57.2726C186.147 57.6139 186.957 57.7846 187.832 57.7846C188.387 57.7846 188.963 57.6779 189.56 57.4646C190.157 57.2513 190.723 56.9633 191.256 56.6006C191.811 56.2166 192.269 55.7686 192.632 55.2566C192.995 54.7446 193.219 54.2113 193.304 53.6566Z" fill="black"/>
<path d="M100 34.3077C97.7244 14.7208 82.1187 2 63.4328 2C45.7709 2 34.3956 12.5438 30.6687 23C15.3104 24.3125 2 32.5353 2 47.5C2 61.9375 15.8224 72 32.7164 72H99.2687" stroke="black" stroke-width="4" stroke-linejoin="round"/>
</svg>
