<svg width="78" height="85" viewBox="0 0 78 85" fill="none" xmlns="http://www.w3.org/2000/svg">
<path d="M7.06922 75.768L0 0H77.6812L70.605 75.7566L38.7935 84.1839L7.06922 75.768Z" fill="#1572B6"/>
<path d="M38.8413 77.7426L64.5469 70.9325L70.5944 6.19467H38.8413V77.7426Z" fill="#33A9DC"/>
<path d="M38.8413 33.6455H51.7099L52.5987 24.1297H38.8413V14.837H63.2271L62.9937 17.3303L60.603 42.9382H38.8413V33.6455V33.6455Z" fill="white"/>
<path d="M38.899 57.7792L38.8561 57.7913L28.0259 54.997L27.3333 47.5855H17.5725L18.9345 62.1766L38.8547 67.4596L38.899 67.4475V57.7792V57.7792Z" fill="#EBEBEB"/>
<path d="M50.883 42.5451L49.7116 54.9896L38.8652 57.7873V67.4556L58.8016 62.176L58.9479 60.6058L60.6396 42.5451H50.883Z" fill="white"/>
<path d="M38.8744 14.837V24.1297H15.3844L15.1896 22.0415L14.7466 17.3303L14.5139 14.837H38.8744V14.837ZM38.8413 33.6468V42.9395H28.1475L27.9527 40.8513L27.5091 36.1401L27.277 33.6468H38.8413V33.6468Z" fill="#EBEBEB"/>
</svg>
