<svg width="125" height="54" viewBox="0 0 125 54" fill="none" xmlns="http://www.w3.org/2000/svg">
<path d="M125 46.5C125 50.3 121.9 53.4 118.1 53.4H6.9C3.1 53.4 0 50.3 0 46.5V6.9C0 3.1 3.1 0 6.9 0H118.1C121.9 0 125 3.1 125 6.9V46.5Z" fill="#003A2B"/>
<path d="M21.5 8.29999H27.5V35.7C24.5 36.3 22.2 36.5 19.8 36.5C12.6 36.5 8.80005 33.2 8.80005 27C8.80005 21 12.8 17 19 17C20 17 20.7 17.1 21.6 17.3V8.29999H21.5V8.29999ZM21.5 22.1C20.8 21.9 20.2 21.8 19.5 21.8C16.5 21.8 14.8 23.6 14.8 26.9C14.8 30.1 16.5 31.8 19.5 31.8C20.2 31.8 20.7 31.8 21.5 31.6V22.1ZM36.9001 17.5V31.2C36.9001 35.9 36.6 38.2 35.5 40.2C34.5 42.1 33.3001 43.3 30.7001 44.6L25.2001 42C27.8001 40.8 29.1 39.7 29.9 38C30.7 36.3 31 34.3 31 29.2V17.5H36.9001V17.5ZM31 8.39999H36.9001V14.5H31V8.39999ZM40.5 18.8C43.1 17.6 45.6 17 48.3 17C51.3 17 53.3001 17.8 54.2001 19.4C54.7001 20.3 54.9001 21.4 54.9001 23.9V35.9C52.2001 36.3 48.9001 36.6 46.4001 36.6C41.4001 36.6 39.2001 34.9 39.2001 31C39.2001 26.8 42.2001 24.9 49.4001 24.3V23C49.4001 21.9 48.9001 21.5 47.4001 21.5C45.2001 21.5 42.7001 22.1 40.4001 23.3V18.8H40.5V18.8ZM49.7001 28.2C45.8001 28.6 44.5 29.2 44.5 30.7C44.5 31.9 45.2 32.4 46.8 32.4C47.7 32.4 48.5 32.3 49.6 32.1V28.2H49.7001V28.2ZM57.8 18.4C61.3 17.5 64.2 17.1 67.1 17.1C70.1 17.1 72.3 17.8 73.6 19.1C74.8 20.4 75.2 21.8 75.2 24.7V36.3H69.3001V24.9C69.3001 22.6 68.5001 21.8 66.4001 21.8C65.6001 21.8 64.9 21.9 63.7 22.2V36.3H57.8V18.4V18.4ZM77.5 39.5C79.6 40.6 81.7 41.1 83.8 41.1C87.7 41.1 89.3 39.5 89.3 35.8V35.7C88.1 36.3 87 36.5 85.5 36.5C80.3 36.5 77 33.1 77 27.7C77 21 81.9 17.2 90.5 17.2C93 17.2 95.4 17.5 98.2 18L96.2 22.3C94.6 22 96.1 22.3 94.9 22.1V22.7L95 25.2V28.4C95 29.2 95 30 95.1 30.8V32.4C95.1 37.5 94.7 39.9 93.4 41.8C91.6 44.7 88.4 46.1 83.8 46.1C81.5 46.1 79.5 45.8 77.4 44.9V39.5H77.5V39.5ZM89.3 21.9H88.7C87.5 21.9 86.2 22.2 85.3 22.7C83.9 23.5 83.1 25 83.1 27C83.1 30 84.6 31.7 87.2 31.7C88 31.7 88.7 31.5 89.4 31.3V21.9H89.3ZM107.5 17C113.4 17 117 20.7 117 26.8C117 33 113.2 36.9 107.2 36.9C101.3 36.9 97.6 33.2 97.6 27.2C97.7 20.9 101.5 17 107.5 17V17ZM107.4 32C109.7 32 111 30.1 111 26.8C111 23.6 109.7 21.6 107.4 21.6C105.1 21.6 103.7 23.5 103.7 26.8C103.8 30.2 105.1 32 107.4 32Z" fill="white"/>
</svg>
