<svg width="90" height="85" viewBox="0 0 90 85" fill="none" xmlns="http://www.w3.org/2000/svg">
<path d="M89.6797 0L81.5097 75.728L44.785 84.1518L8.16155 75.7396L0 0H89.6797Z" fill="#E44D26"/>
<path d="M44.8398 77.7128L74.5152 70.9058L81.4967 6.19266H44.8398V77.7128Z" fill="#F16529"/>
<path d="M28.9576 24.7713H44.8398V15.4821H16.688L16.9566 17.9742L19.7161 43.5727H44.8398V34.2835H29.9837L28.9576 24.7713V24.7713ZM31.4879 48.2174H20.2177L21.7905 62.8028L44.7882 68.0848L44.8398 68.0732V58.4085L44.7906 58.4193L32.2873 55.6259L31.4879 48.2174V48.2174Z" fill="#EBEBEB"/>
<path d="M44.8011 43.5727H58.6259L57.3224 55.62L44.8008 58.4164V68.0804L67.8167 62.8028L67.9855 61.2333L70.6241 36.7779L70.8979 34.2835H44.8011V43.5727ZM44.8011 24.7486V24.7713H71.9195L72.1445 22.6835L72.6563 17.9742L72.9245 15.4821H44.8011V24.7489V24.7486Z" fill="white"/>
</svg>
