<svg width="83" height="84" viewBox="0 0 83 84" fill="none" xmlns="http://www.w3.org/2000/svg">
<path d="M83 0H0L7.78105 75.4496L41.4958 84L75.2105 75.4496L83 0Z" fill="#E6A329"/>
<path d="M40 6V78L66.5429 71.0278L73 6H40Z" fill="#F1BF22"/>
<path d="M60.6824 15H20.7793L18 43.4691L18.0572 43.2919H51.957L50.8529 55.3375L40.0368 58.2891L29.061 55.2899L28.4036 47.9993H18.4406L19.8619 62.5671L40.0368 68L60.2207 62.5671L63 33.9724H27.0225L27.4842 24.4452H52.4458L52.8192 29.9039H62.8665L60.6824 15Z" fill="white"/>
<path d="M40 15H20.7736L18 43.4736L18.0571 43.2965H39.999V34.0078H28.4045L28.8653 24.4791H40V15ZM28.4045 48.0094H18.4387L19.8571 62.5719L39.991 68V58.3094L29.0376 55.3021L28.4045 48.0094Z" fill="#EBEBEB"/>
</svg>
