<svg width="100" height="100" viewBox="0 0 100 100" fill="none" xmlns="http://www.w3.org/2000/svg">
<rect width="100" height="100" fill="white"/>
<path d="M44.616 59V52.064L41.532 57.452H41.004L37.908 52.064V59H37.068V50.48H37.932L41.256 56.312L44.604 50.48H45.456V59H44.616ZM49.8494 59.084C49.4254 59.084 49.0334 58.996 48.6734 58.82C48.3134 58.644 48.0014 58.408 47.7374 58.112C47.4814 57.808 47.2814 57.464 47.1374 57.08C46.9934 56.696 46.9214 56.3 46.9214 55.892C46.9214 55.452 46.9894 55.04 47.1254 54.656C47.2694 54.264 47.4694 53.916 47.7254 53.612C47.9894 53.308 48.2974 53.072 48.6494 52.904C49.0014 52.728 49.3934 52.64 49.8254 52.64C50.3614 52.64 50.8254 52.776 51.2174 53.048C51.6174 53.32 51.9534 53.656 52.2254 54.056V52.748H52.9574V59.024C52.9574 59.6 52.8174 60.084 52.5374 60.476C52.2654 60.876 51.8934 61.176 51.4214 61.376C50.9574 61.576 50.4494 61.676 49.8974 61.676C49.1854 61.676 48.6094 61.548 48.1694 61.292C47.7294 61.036 47.3694 60.692 47.0894 60.26L47.5934 59.864C47.8414 60.256 48.1694 60.548 48.5774 60.74C48.9934 60.932 49.4334 61.028 49.8974 61.028C50.3054 61.028 50.6774 60.952 51.0134 60.8C51.3574 60.656 51.6294 60.436 51.8294 60.14C52.0374 59.844 52.1414 59.472 52.1414 59.024V57.788C51.9014 58.18 51.5734 58.496 51.1574 58.736C50.7414 58.968 50.3054 59.084 49.8494 59.084ZM50.0774 58.4C50.3254 58.4 50.5614 58.356 50.7854 58.268C51.0174 58.18 51.2294 58.064 51.4214 57.92C51.6134 57.768 51.7734 57.6 51.9014 57.416C52.0294 57.232 52.1094 57.044 52.1414 56.852V54.92C52.0214 54.616 51.8494 54.348 51.6254 54.116C51.4014 53.876 51.1454 53.692 50.8574 53.564C50.5774 53.428 50.2854 53.36 49.9814 53.36C49.6294 53.36 49.3134 53.436 49.0334 53.588C48.7614 53.732 48.5294 53.928 48.3374 54.176C48.1534 54.416 48.0094 54.688 47.9054 54.992C47.8014 55.296 47.7494 55.6 47.7494 55.904C47.7494 56.24 47.8094 56.56 47.9294 56.864C48.0494 57.16 48.2134 57.428 48.4214 57.668C48.6374 57.9 48.8854 58.08 49.1654 58.208C49.4534 58.336 49.7574 58.4 50.0774 58.4ZM57.4714 59.12C57.0154 59.12 56.5954 59.036 56.2114 58.868C55.8354 58.692 55.5034 58.452 55.2154 58.148C54.9354 57.844 54.7154 57.496 54.5554 57.104C54.4034 56.712 54.3274 56.296 54.3274 55.856C54.3274 55.264 54.4594 54.724 54.7234 54.236C54.9874 53.748 55.3554 53.36 55.8274 53.072C56.2994 52.784 56.8434 52.64 57.4594 52.64C58.0434 52.64 58.5594 52.776 59.0074 53.048C59.4554 53.312 59.7874 53.672 60.0034 54.128L59.2114 54.38C59.0354 54.06 58.7874 53.812 58.4674 53.636C58.1554 53.452 57.8074 53.36 57.4234 53.36C57.0074 53.36 56.6274 53.468 56.2834 53.684C55.9394 53.9 55.6634 54.196 55.4554 54.572C55.2554 54.948 55.1554 55.376 55.1554 55.856C55.1554 56.328 55.2594 56.756 55.4674 57.14C55.6754 57.524 55.9514 57.832 56.2954 58.064C56.6394 58.288 57.0194 58.4 57.4354 58.4C57.7074 58.4 57.9674 58.352 58.2154 58.256C58.4714 58.16 58.6914 58.032 58.8754 57.872C59.0674 57.704 59.1954 57.524 59.2594 57.332L60.0634 57.572C59.9514 57.868 59.7634 58.136 59.4994 58.376C59.2434 58.608 58.9394 58.792 58.5874 58.928C58.2434 59.056 57.8714 59.12 57.4714 59.12ZM61.3813 50.24H62.1973V57.584C62.1973 57.896 62.2533 58.1 62.3653 58.196C62.4773 58.292 62.6133 58.34 62.7733 58.34C62.9173 58.34 63.0613 58.324 63.2053 58.292C63.3493 58.26 63.4733 58.228 63.5773 58.196L63.7213 58.856C63.5693 58.92 63.3813 58.972 63.1573 59.012C62.9413 59.052 62.7533 59.072 62.5933 59.072C62.2253 59.072 61.9293 58.964 61.7053 58.748C61.4893 58.532 61.3813 58.236 61.3813 57.86V50.24ZM67.2788 59.12C66.8308 59.12 66.4148 59.036 66.0308 58.868C65.6548 58.692 65.3268 58.456 65.0468 58.16C64.7748 57.856 64.5628 57.512 64.4108 57.128C64.2588 56.736 64.1828 56.324 64.1828 55.892C64.1828 55.444 64.2588 55.028 64.4108 54.644C64.5628 54.252 64.7788 53.908 65.0588 53.612C65.3388 53.308 65.6668 53.072 66.0428 52.904C66.4268 52.728 66.8428 52.64 67.2908 52.64C67.7388 52.64 68.1508 52.728 68.5268 52.904C68.9028 53.072 69.2308 53.308 69.5108 53.612C69.7908 53.908 70.0068 54.252 70.1588 54.644C70.3108 55.028 70.3868 55.444 70.3868 55.892C70.3868 56.324 70.3108 56.736 70.1588 57.128C70.0068 57.512 69.7908 57.856 69.5108 58.16C69.2388 58.456 68.9108 58.692 68.5268 58.868C68.1508 59.036 67.7348 59.12 67.2788 59.12ZM65.0108 55.904C65.0108 56.368 65.1108 56.792 65.3108 57.176C65.5188 57.552 65.7948 57.852 66.1388 58.076C66.4828 58.292 66.8628 58.4 67.2788 58.4C67.6948 58.4 68.0748 58.288 68.4188 58.064C68.7628 57.84 69.0388 57.536 69.2468 57.152C69.4548 56.76 69.5588 56.336 69.5588 55.88C69.5588 55.416 69.4548 54.992 69.2468 54.608C69.0388 54.224 68.7628 53.92 68.4188 53.696C68.0748 53.472 67.6948 53.36 67.2788 53.36C66.8628 53.36 66.4828 53.476 66.1388 53.708C65.8028 53.94 65.5308 54.248 65.3228 54.632C65.1148 55.008 65.0108 55.432 65.0108 55.904ZM71.6916 56.42V52.748H72.5076V56.276C72.5076 56.988 72.6276 57.52 72.8676 57.872C73.1156 58.224 73.4796 58.4 73.9596 58.4C74.2796 58.4 74.5876 58.332 74.8836 58.196C75.1876 58.052 75.4556 57.852 75.6876 57.596C75.9196 57.332 76.0956 57.028 76.2156 56.684V52.748H77.0316V58.016C77.0316 58.128 77.0556 58.212 77.1036 58.268C77.1516 58.316 77.2236 58.344 77.3196 58.352V59C77.2236 59.008 77.1476 59.012 77.0916 59.012C77.0356 59.02 76.9836 59.024 76.9356 59.024C76.7756 59.008 76.6356 58.944 76.5156 58.832C76.4036 58.72 76.3436 58.584 76.3356 58.424L76.3116 57.584C76.0396 58.064 75.6676 58.44 75.1956 58.712C74.7316 58.984 74.2276 59.12 73.6836 59.12C73.0276 59.12 72.5316 58.892 72.1956 58.436C71.8596 57.98 71.6916 57.308 71.6916 56.42ZM78.4566 55.892C78.4566 55.3 78.5766 54.76 78.8166 54.272C79.0646 53.776 79.4046 53.38 79.8366 53.084C80.2686 52.788 80.7606 52.64 81.3126 52.64C81.8326 52.64 82.2966 52.78 82.7046 53.06C83.1206 53.332 83.4446 53.664 83.6766 54.056V50.24H84.4926V58.016C84.4926 58.128 84.5166 58.212 84.5646 58.268C84.6126 58.316 84.6846 58.344 84.7806 58.352V59C84.6206 59.024 84.4966 59.032 84.4086 59.024C84.2406 59.016 84.0926 58.948 83.9646 58.82C83.8366 58.692 83.7726 58.552 83.7726 58.4V57.788C83.5246 58.196 83.1886 58.52 82.7646 58.76C82.3406 59 81.9006 59.12 81.4446 59.12C81.0126 59.12 80.6126 59.032 80.2446 58.856C79.8846 58.68 79.5686 58.44 79.2966 58.136C79.0326 57.832 78.8246 57.488 78.6726 57.104C78.5286 56.712 78.4566 56.308 78.4566 55.892ZM83.6766 56.852V54.92C83.5726 54.632 83.4046 54.372 83.1726 54.14C82.9406 53.9 82.6766 53.712 82.3806 53.576C82.0926 53.432 81.8046 53.36 81.5166 53.36C81.1806 53.36 80.8766 53.432 80.6046 53.576C80.3326 53.712 80.0966 53.9 79.8966 54.14C79.7046 54.38 79.5566 54.652 79.4526 54.956C79.3486 55.26 79.2966 55.572 79.2966 55.892C79.2966 56.228 79.3526 56.548 79.4646 56.852C79.5846 57.156 79.7526 57.428 79.9686 57.668C80.1846 57.9 80.4326 58.08 80.7126 58.208C80.9926 58.336 81.2966 58.4 81.6246 58.4C81.8326 58.4 82.0486 58.36 82.2726 58.28C82.4966 58.2 82.7086 58.092 82.9086 57.956C83.1166 57.812 83.2886 57.644 83.4246 57.452C83.5606 57.26 83.6446 57.06 83.6766 56.852Z" fill="black"/>
<path d="M47.5 49C46.7221 41.7249 41.3875 37 35 37C28.9625 37 25.074 40.9162 23.8 44.8C18.55 45.2875 14 48.3417 14 53.9C14 59.2625 18.725 63 24.5 63H47.25" stroke="black" stroke-width="2" stroke-linejoin="round"/>
</svg>
