<svg width="82" height="84" viewBox="0 0 82 84" fill="none" xmlns="http://www.w3.org/2000/svg">
<path d="M40.8328 0C19.9505 0 21.2543 9.33191 21.2543 9.33191L21.2775 19.0001H41.2051V21.9027H13.3626C13.3626 21.9027 0 20.341 0 42.0535C0 63.7667 11.6632 62.9966 11.6632 62.9966H18.6238V52.9209C18.6238 52.9209 18.2485 40.9021 30.1008 40.9021H49.8654C49.8654 40.9021 60.9698 41.087 60.9698 29.8429V11.2514C60.9698 11.2514 62.6563 0 40.8328 0ZM29.8447 6.50163C30.3156 6.5012 30.782 6.59645 31.2171 6.78195C31.6523 6.96745 32.0476 7.23955 32.3806 7.58269C32.7136 7.92582 32.9776 8.33324 33.1577 8.78165C33.3377 9.23005 33.4301 9.71064 33.4297 10.1959C33.4301 10.6812 33.3377 11.1617 33.1577 11.6101C32.9776 12.0586 32.7136 12.466 32.3806 12.8091C32.0476 13.1522 31.6523 13.4243 31.2171 13.6098C30.782 13.7953 30.3156 13.8906 29.8447 13.8902C29.3738 13.8906 28.9074 13.7953 28.4723 13.6098C28.0372 13.4243 27.6418 13.1522 27.3088 12.8091C26.9758 12.466 26.7118 12.0586 26.5318 11.6101C26.3518 11.1617 26.2593 10.6812 26.2598 10.1959C26.2593 9.71064 26.3518 9.23005 26.5318 8.78165C26.7118 8.33324 26.9758 7.92582 27.3088 7.58269C27.6418 7.23955 28.0372 6.96745 28.4723 6.78195C28.9074 6.59645 29.3738 6.5012 29.8447 6.50163V6.50163Z" fill="url(#paint0_linear_21_64)"/>
<path d="M41.1675 84C62.0498 84 60.746 74.6681 60.746 74.6681L60.7228 65.0003H40.7948V62.0976H68.6374C68.6374 62.0976 82 63.6593 82 41.9462C82 20.2333 70.3368 21.0034 70.3368 21.0034H63.3762V31.0788C63.3762 31.0788 63.7515 43.0976 51.8992 43.0976H32.1346C32.1346 43.0976 21.0302 42.9127 21.0302 54.1571V72.7489C21.0302 72.7489 19.344 84 41.1672 84H41.1675ZM52.1556 77.499C51.6847 77.4995 51.2183 77.4042 50.7832 77.2187C50.3481 77.0332 49.9527 76.7611 49.6197 76.418C49.2867 76.0748 49.0227 75.6674 48.8427 75.219C48.6627 74.7706 48.5702 74.29 48.5706 73.8048C48.5702 73.3195 48.6626 72.8389 48.8426 72.3904C49.0226 71.942 49.2866 71.5345 49.6196 71.1913C49.9526 70.8482 50.348 70.576 50.7831 70.3905C51.2183 70.205 51.6847 70.1097 52.1556 70.1102C52.6265 70.1097 53.0929 70.205 53.528 70.3905C53.9631 70.576 54.3585 70.8481 54.6915 71.1912C55.0245 71.5343 55.2885 71.9418 55.4685 72.3902C55.6485 72.8386 55.741 73.3192 55.7406 73.8044C55.741 74.2897 55.6485 74.7703 55.4685 75.2187C55.2885 75.6671 55.0245 76.0745 54.6915 76.4176C54.3585 76.7608 53.9631 77.0329 53.528 77.2184C53.0929 77.4039 52.6265 77.4991 52.1556 77.4987V77.499Z" fill="url(#paint1_linear_21_64)"/>
<defs>
<linearGradient id="paint0_linear_21_64" x1="7.90499" y1="7.58457" x2="49.881" y2="47.9123" gradientUnits="userSpaceOnUse">
<stop stop-color="#387EB8"/>
<stop offset="1" stop-color="#366994"/>
</linearGradient>
<linearGradient id="paint1_linear_21_64" x1="32.6681" y1="33.9648" x2="77.6831" y2="75.2599" gradientUnits="userSpaceOnUse">
<stop stop-color="#FFE052"/>
<stop offset="1" stop-color="#FFC331"/>
</linearGradient>
</defs>
</svg>
