<svg width="184" height="73" viewBox="0 0 184 73" fill="none" xmlns="http://www.w3.org/2000/svg">
<path d="M71.368 59V41.656L63.88 55H62.12L54.6 41.656V59H51.72V36.28H54.76L62.984 51.032L71.24 36.28H74.248V59H71.368ZM85.6468 59.192C84.5161 59.192 83.4708 58.968 82.5108 58.52C81.5721 58.0507 80.7614 57.4213 80.0788 56.632C79.3961 55.8213 78.8628 54.904 78.4788 53.88C78.1161 52.856 77.9348 51.7893 77.9348 50.68C77.9348 49.5067 78.1161 48.3973 78.4788 47.352C78.8628 46.3067 79.3961 45.3893 80.0788 44.6C80.7828 43.7893 81.6041 43.16 82.5428 42.712C83.4814 42.2427 84.5268 42.008 85.6788 42.008C87.0654 42.008 88.2708 42.3493 89.2948 43.032C90.3401 43.7147 91.2148 44.5787 91.9188 45.624V42.296H94.4148V58.808C94.4148 60.3867 94.0308 61.72 93.2628 62.808C92.5161 63.896 91.4921 64.7173 90.1908 65.272C88.9108 65.848 87.4814 66.136 85.9028 66.136C84.0254 66.136 82.4894 65.8053 81.2948 65.144C80.1001 64.4827 79.1081 63.5867 78.3188 62.456L79.9508 61.016C80.6121 61.9973 81.4654 62.7333 82.5108 63.224C83.5774 63.7147 84.7081 63.96 85.9028 63.96C86.9268 63.96 87.8654 63.768 88.7188 63.384C89.5934 63.0213 90.2868 62.456 90.7988 61.688C91.3321 60.92 91.5988 59.96 91.5988 58.808V55.864C90.9801 56.888 90.1268 57.6987 89.0388 58.296C87.9721 58.8933 86.8414 59.192 85.6468 59.192ZM86.5108 56.888C87.1081 56.888 87.6841 56.7813 88.2388 56.568C88.7934 56.3547 89.3054 56.0773 89.7748 55.736C90.2441 55.3733 90.6388 54.968 90.9588 54.52C91.2788 54.072 91.4921 53.6133 91.5988 53.144V48.344C91.3001 47.576 90.8734 46.904 90.3188 46.328C89.7641 45.7307 89.1348 45.272 88.4308 44.952C87.7268 44.6107 87.0014 44.44 86.2548 44.44C85.4014 44.44 84.6334 44.6213 83.9508 44.984C83.2894 45.3467 82.7241 45.8373 82.2548 46.456C81.7854 47.0533 81.4228 47.7253 81.1668 48.472C80.9108 49.2187 80.7828 49.976 80.7828 50.744C80.7828 51.576 80.9321 52.3653 81.2308 53.112C81.5294 53.8373 81.9348 54.488 82.4468 55.064C82.9588 55.64 83.5668 56.088 84.2708 56.408C84.9748 56.728 85.7214 56.888 86.5108 56.888ZM106.352 59.32C105.093 59.32 103.941 59.096 102.896 58.648C101.872 58.1787 100.976 57.5387 100.208 56.728C99.4608 55.9173 98.8742 54.9893 98.4475 53.944C98.0422 52.8987 97.8395 51.7893 97.8395 50.616C97.8395 49.0373 98.1915 47.5973 98.8955 46.296C99.5995 44.9947 100.592 43.96 101.872 43.192C103.152 42.4027 104.634 42.008 106.32 42.008C107.962 42.008 109.392 42.3813 110.608 43.128C111.845 43.8533 112.762 44.8347 113.36 46.072L110.608 46.936C110.181 46.1467 109.584 45.5387 108.816 45.112C108.048 44.664 107.194 44.44 106.256 44.44C105.232 44.44 104.293 44.7067 103.44 45.24C102.608 45.7733 101.946 46.5093 101.456 47.448C100.965 48.3653 100.72 49.4213 100.72 50.616C100.72 51.7893 100.965 52.856 101.456 53.816C101.968 54.7547 102.64 55.5013 103.472 56.056C104.325 56.6107 105.264 56.888 106.288 56.888C106.949 56.888 107.578 56.7707 108.176 56.536C108.794 56.3013 109.328 55.992 109.776 55.608C110.245 55.2027 110.565 54.7653 110.736 54.296L113.488 55.128C113.146 55.9387 112.624 56.664 111.92 57.304C111.237 57.9227 110.416 58.4133 109.456 58.776C108.517 59.1387 107.482 59.32 106.352 59.32ZM116.742 35.64H119.558V54.68C119.558 55.5973 119.686 56.1627 119.942 56.376C120.198 56.5893 120.508 56.696 120.87 56.696C121.318 56.696 121.745 56.6533 122.15 56.568C122.556 56.4613 122.897 56.3547 123.174 56.248L123.622 58.552C123.153 58.744 122.598 58.904 121.958 59.032C121.318 59.16 120.753 59.224 120.262 59.224C119.174 59.224 118.31 58.9147 117.67 58.296C117.052 57.6773 116.742 56.8133 116.742 55.704V35.64ZM133.131 59.32C131.872 59.32 130.731 59.096 129.707 58.648C128.683 58.1787 127.797 57.5493 127.051 56.76C126.304 55.9493 125.728 55.0213 125.323 53.976C124.917 52.9307 124.715 51.832 124.715 50.68C124.715 49.5067 124.917 48.3973 125.323 47.352C125.728 46.3067 126.304 45.3893 127.051 44.6C127.797 43.7893 128.683 43.16 129.707 42.712C130.752 42.2427 131.893 42.008 133.131 42.008C134.389 42.008 135.531 42.2427 136.555 42.712C137.579 43.16 138.464 43.7893 139.211 44.6C139.979 45.3893 140.565 46.3067 140.971 47.352C141.376 48.3973 141.579 49.5067 141.579 50.68C141.579 51.832 141.376 52.9307 140.971 53.976C140.565 55.0213 139.989 55.9493 139.243 56.76C138.496 57.5493 137.6 58.1787 136.555 58.648C135.531 59.096 134.389 59.32 133.131 59.32ZM127.595 50.712C127.595 51.864 127.84 52.9093 128.331 53.848C128.843 54.7867 129.515 55.5333 130.347 56.088C131.179 56.6213 132.107 56.888 133.131 56.888C134.155 56.888 135.083 56.6107 135.915 56.056C136.768 55.5013 137.44 54.7547 137.931 53.816C138.443 52.856 138.699 51.8 138.699 50.648C138.699 49.496 138.443 48.4507 137.931 47.512C137.44 46.5733 136.768 45.8267 135.915 45.272C135.083 44.7173 134.155 44.44 133.131 44.44C132.107 44.44 131.179 44.728 130.347 45.304C129.515 45.8587 128.843 46.6053 128.331 47.544C127.84 48.4827 127.595 49.5387 127.595 50.712ZM144.831 52.312V42.296H147.647V51.768C147.647 53.4747 147.945 54.7547 148.543 55.608C149.14 56.4613 150.025 56.888 151.199 56.888C151.967 56.888 152.703 56.728 153.407 56.408C154.132 56.0667 154.783 55.5867 155.359 54.968C155.935 54.3493 156.383 53.6133 156.703 52.76V42.296H159.519V55.8C159.519 56.1413 159.583 56.3973 159.711 56.568C159.86 56.7173 160.095 56.8027 160.415 56.824V59C160.095 59.0427 159.839 59.064 159.647 59.064C159.476 59.0853 159.305 59.096 159.135 59.096C158.601 59.096 158.143 58.936 157.759 58.616C157.375 58.2747 157.172 57.8587 157.151 57.368L157.087 55.416C156.361 56.6533 155.38 57.6133 154.143 58.296C152.927 58.9787 151.593 59.32 150.143 59.32C148.393 59.32 147.071 58.7333 146.175 57.56C145.279 56.3653 144.831 54.616 144.831 52.312ZM163.122 50.68C163.122 49.1013 163.442 47.6613 164.082 46.36C164.743 45.0373 165.639 43.9813 166.77 43.192C167.922 42.4027 169.234 42.008 170.706 42.008C172.05 42.008 173.255 42.36 174.322 43.064C175.388 43.768 176.22 44.6213 176.818 45.624V35.64H179.634V55.8C179.634 56.1413 179.698 56.3973 179.826 56.568C179.975 56.7173 180.21 56.8027 180.53 56.824V59C179.996 59.0853 179.58 59.128 179.282 59.128C178.727 59.128 178.236 58.936 177.81 58.552C177.404 58.168 177.202 57.7413 177.202 57.272V55.864C176.54 56.9307 175.655 57.7733 174.546 58.392C173.436 59.0107 172.284 59.32 171.09 59.32C169.938 59.32 168.871 59.096 167.89 58.648C166.93 58.1787 166.087 57.5387 165.362 56.728C164.658 55.9173 164.103 55 163.698 53.976C163.314 52.9307 163.122 51.832 163.122 50.68ZM176.818 53.144V48.344C176.562 47.6187 176.146 46.968 175.57 46.392C174.994 45.7947 174.343 45.3253 173.618 44.984C172.914 44.6213 172.21 44.44 171.506 44.44C170.674 44.44 169.916 44.6213 169.234 44.984C168.572 45.3253 167.996 45.7947 167.506 46.392C167.036 46.968 166.674 47.6293 166.418 48.376C166.162 49.1227 166.034 49.9013 166.034 50.712C166.034 51.544 166.172 52.3333 166.45 53.08C166.748 53.8267 167.154 54.488 167.666 55.064C168.199 55.64 168.807 56.088 169.49 56.408C170.194 56.728 170.951 56.888 171.762 56.888C172.274 56.888 172.796 56.792 173.33 56.6C173.884 56.408 174.407 56.1413 174.898 55.8C175.388 55.4587 175.804 55.064 176.146 54.616C176.487 54.1467 176.711 53.656 176.818 53.144Z" fill="black"/>
<path d="M82 33.9231C80.1656 15.1756 67.5854 3 52.5224 3C38.2847 3 29.1148 13.0919 26.1104 23.1C13.7299 24.3562 3 32.2267 3 46.55C3 60.3687 14.1425 70 27.7612 70H81.4105" stroke="black" stroke-width="5" stroke-linejoin="round"/>
</svg>
